<?xml version="1.0" encoding="utf-8"?>
<!-- Generator: Adobe Illustrator 17.0.0, SVG Export Plug-In . SVG Version: 6.00 Build 0)  -->
<!DOCTYPE svg PUBLIC "-//W3C//DTD SVG 1.1//EN" "http://www.w3.org/Graphics/SVG/1.1/DTD/svg11.dtd">
<svg version="1.1" xmlns="http://www.w3.org/2000/svg" xmlns:xlink="http://www.w3.org/1999/xlink" x="0px" y="0px" width="402px"
	 height="402px" viewBox="0 0 402 402" enable-background="new 0 0 402 402" xml:space="preserve">
<g id="Layer_8">
</g>
<g id="belt">
	<g>
		<circle fill="#84E86B" stroke="#231F20" stroke-width="7" stroke-miterlimit="10" cx="201" cy="201" r="201"/>
		<g>
			<path opacity="0.2" fill="#FFFFFF" d="M152.38,67.083l48.622,4.559l42.712-2.279h9l4,19.945c0,0,6.777,17.67,8.5,23.792
				c3.268,11.612,7.5,47.156,7.5,47.156v21.94v3.989v8.548l1.667,5.984l2.667,30.202l6,62.399l2.667,32.482l-18.667,7.123l-25-4.844
				l-1.667-14.246l-4.667-30.772l-5-38.18l-11.667-49.863l-15.146-63.824l-8.521,41.885l-10.333,45.874l-5,27.923l-0.667,21.085
				l-7.333,39.605l-2,7.978l-0.667,12.822l-19.333,6.553l-20.333-7.693l4-33.052l3-57.271l2.667-47.013
				c0,0,0.31-40.841,1.333-54.421c0.399-5.291,2.667-21.085,2.667-21.085s0.515-14.619,1.667-19.375
				c0.822-3.397,5.333-13.107,5.333-13.107L152.38,67.083z"/>
			<path fill="none" stroke="#231F20" stroke-width="2" stroke-miterlimit="10" d="M152.38,67.083l48.622,4.559l42.712-2.279h9
				l4,19.945c0,0,6.777,17.67,8.5,23.792c3.268,11.612,7.5,47.156,7.5,47.156v21.94v3.989v8.548l1.667,5.984l2.667,30.202l6,62.399
				l2.667,32.482l-18.667,7.123l-25-4.844l-1.667-14.246l-4.667-30.772l-5-38.18l-11.667-49.863l-15.146-63.824l-8.521,41.885
				l-10.333,45.874l-5,27.923l-0.667,21.085l-7.333,39.605l-2,7.978l-0.667,12.822l-19.333,6.553l-20.333-7.693l4-33.052l3-57.271
				l2.667-47.013c0,0,0.31-40.841,1.333-54.421c0.399-5.291,2.667-21.085,2.667-21.085s0.515-14.619,1.667-19.375
				c0.822-3.397,5.333-13.107,5.333-13.107L152.38,67.083z"/>
			
				<line fill="none" stroke="#231F20" stroke-width="2" stroke-linecap="round" stroke-miterlimit="10" x1="160.151" y1="138.583" x2="163.089" y2="89.723"/>
			
				<line fill="none" stroke="#231F20" stroke-width="2" stroke-linecap="round" stroke-miterlimit="10" x1="241.74" y1="94.069" x2="247.365" y2="136.917"/>
			<polyline fill="none" stroke="#231F20" stroke-width="2" stroke-linecap="round" stroke-miterlimit="10" points="
				172.714,124.354 160.151,194.162 155.714,236.616 153.047,291.892 150.047,334.917 			"/>
			<polyline fill="none" stroke="#231F20" stroke-width="2" stroke-linecap="round" stroke-miterlimit="10" points="
				247.365,135.466 251.714,186.754 257.714,233.767 264.714,302.15 267.047,332.922 			"/>
			<polygon fill="none" stroke="#231F20" stroke-miterlimit="10" points="160.089,69.333 157.214,88.583 160.089,88.583 
				163.089,69.958 			"/>
			<polygon fill="none" stroke="#231F20" stroke-miterlimit="10" points="167.089,70.208 164.214,89.208 167.089,89.208 
				169.839,70.833 			"/>
			<polygon fill="none" stroke="#231F20" stroke-miterlimit="10" points="238.214,91.768 235.339,72.518 238.214,72.518 
				241.214,91.143 			"/>
			<polygon fill="none" stroke="#231F20" stroke-miterlimit="10" points="245.669,91.01 242.794,72.01 245.669,72.01 
				248.419,90.385 			"/>
			
				<line fill="none" stroke="#231F20" stroke-linecap="round" stroke-miterlimit="10" x1="160.151" y1="138.583" x2="163.089" y2="89.723"/>
			
				<line fill="none" stroke="#231F20" stroke-linecap="round" stroke-miterlimit="10" x1="241.74" y1="94.069" x2="247.365" y2="136.917"/>
			<polyline fill="none" stroke="#231F20" stroke-linecap="round" stroke-miterlimit="10" points="172.714,124.354 160.151,194.162 
				155.714,236.616 153.047,291.892 150.047,334.917 			"/>
			<polyline fill="none" stroke="#231F20" stroke-linecap="round" stroke-miterlimit="10" points="247.365,135.466 251.714,186.754 
				257.714,233.767 264.714,302.15 267.047,332.922 			"/>
			<path fill="#FFFFFF" stroke="#231F20" stroke-width="3" stroke-linejoin="round" stroke-miterlimit="10" d="M149.37,68.458
				l22.478,3.869l27.558,4.145l24.764-1.382l28.793-2.257l1.178,1.428l3.683-0.138c0,0,1.466,8.307,0.635,10.915
				c-0.2,0.628-1.651,2.072-1.651,2.072l-26.796,4.283l-22.097,1.536l-20.573-2.227l-33.654-4.559l-6.096-0.691L149.37,68.458z"/>
			<circle fill="#FFFFFF" stroke="#231F20" stroke-width="3" stroke-miterlimit="10" cx="206.214" cy="83.878" r="11.683"/>
			<circle fill="none" stroke="#231F20" stroke-miterlimit="10" cx="206.214" cy="83.878" r="9.25"/>
			<polygon fill="#FFFFFF" stroke="#231F20" stroke-miterlimit="10" points="160.089,69.333 157.214,88.583 160.089,88.583 
				163.089,69.958 			"/>
			<polygon fill="#FFFFFF" stroke="#231F20" stroke-miterlimit="10" points="167.089,70.208 164.214,89.208 167.089,89.208 
				169.839,70.833 			"/>
			<polygon fill="#FFFFFF" stroke="#231F20" stroke-miterlimit="10" points="238.214,91.768 235.339,72.518 238.214,72.518 
				241.214,91.143 			"/>
			<polygon fill="#FFFFFF" stroke="#231F20" stroke-miterlimit="10" points="245.669,91.01 242.794,72.01 245.669,72.01 
				248.419,90.385 			"/>
			<path fill="none" stroke="#231F20" stroke-width="2" stroke-miterlimit="10" d="M252.964,72.833
				c1.73,1.012,2.037,5.947,2.125,7.746c0.075,1.54-0.005,3.038-0.344,4.497c-0.439,1.89-1.134,2.176-2.656,3.006"/>
			<line fill="none" stroke="#231F20" stroke-miterlimit="10" x1="206.214" y1="74.628" x2="206.214" y2="92.929"/>
			<line fill="none" stroke="#231F20" stroke-miterlimit="10" x1="209.387" y1="75.189" x2="209.387" y2="92.367"/>
			<line fill="none" stroke="#231F20" stroke-miterlimit="10" x1="212.589" y1="77.417" x2="212.589" y2="90.625"/>
			<line fill="none" stroke="#231F20" stroke-miterlimit="10" x1="203.153" y1="75.189" x2="203.153" y2="92.542"/>
			<line fill="none" stroke="#231F20" stroke-miterlimit="10" x1="199.964" y1="77.042" x2="199.964" y2="90.625"/>
			<g>
				<g>
					
						<line fill="none" stroke="#BE1E2D" stroke-width="8" stroke-linecap="round" stroke-miterlimit="10" x1="340.961" y1="114.036" x2="260.308" y2="86.797"/>
					<g>
						<polygon fill="#BE1E2D" points="295.892,64.28 299.187,71.578 263.22,87.772 282.001,122.465 274.956,126.27 252.091,84.013 
													"/>
					</g>
				</g>
			</g>
		</g>
	</g>
</g>
</svg>
