<?xml version="1.0" encoding="utf-8"?>
<!-- Generator: Adobe Illustrator 17.0.0, SVG Export Plug-In . SVG Version: 6.00 Build 0)  -->
<!DOCTYPE svg PUBLIC "-//W3C//DTD SVG 1.1//EN" "http://www.w3.org/Graphics/SVG/1.1/DTD/svg11.dtd">
<svg version="1.1" xmlns="http://www.w3.org/2000/svg" xmlns:xlink="http://www.w3.org/1999/xlink" x="0px" y="0px" width="402px"
	 height="402px" viewBox="0 0 402 402" enable-background="new 0 0 402 402" xml:space="preserve">
<g id="Layer_8">
</g>
<g id="belt">
	<g>
		<circle fill="#3D95FF" stroke="#231F20" stroke-width="7" stroke-miterlimit="10" cx="200.003" cy="201" r="201"/>
		<g>
			
				<polygon fill="#FFFFFF" stroke="#231F20" stroke-width="7" stroke-linecap="round" stroke-linejoin="round" stroke-miterlimit="10" points="
				142.048,158.333 112.048,264.333 77.381,252 145.715,72 171.048,57 190.715,37.333 214.355,36 233.048,56.333 258.715,69.333 
				325.715,253.667 290.048,266 262.381,173.333 285.048,333.667 256.381,340 210.715,340 158.048,342.667 158.381,337.333 
				123.048,334.333 			"/>
			
				<polyline fill="none" stroke="#231F20" stroke-width="7" stroke-linecap="round" stroke-linejoin="round" stroke-miterlimit="10" points="
				174.465,53.583 166.715,87 186.048,82 202.131,81.333 193.577,60.667 190.715,37.667 			"/>
			
				<polyline fill="none" stroke="#231F20" stroke-width="7" stroke-linecap="round" stroke-linejoin="round" stroke-miterlimit="10" points="
				182.715,83.667 173.048,144.333 166.715,216 158.048,341.333 			"/>
			
				<polyline fill="none" stroke="#231F20" stroke-width="7" stroke-linecap="round" stroke-linejoin="round" stroke-miterlimit="10" points="
				214.355,37.667 212.715,58.667 204.048,81.333 221.589,81.333 239.239,85.051 233.048,56.333 			"/>
			<path fill="none" stroke="#231F20" stroke-width="7" stroke-linecap="round" stroke-linejoin="round" stroke-miterlimit="10" d="
				M257.715,69.667c-5.548,0.182-7.14,20.883-7.333,24.926c-0.203,4.242-0.308,9.084,0.259,13.148
				c0.461,3.302,12.346,69.871,12.346,69.871"/>
			<path fill="none" stroke="#231F20" stroke-width="7" stroke-linecap="round" stroke-linejoin="round" stroke-miterlimit="10" d="
				M146.048,71.333c4.667,5.833,2.749,42.322,2.417,46l-6.75,43"/>
			
				<line fill="none" stroke="#231F20" stroke-width="7" stroke-linecap="round" stroke-linejoin="round" stroke-miterlimit="10" x1="193.577" y1="51.5" x2="213.274" y2="51.5"/>
			
				<circle fill="none" stroke="#231F20" stroke-width="4" stroke-linecap="round" stroke-linejoin="round" stroke-miterlimit="10" cx="177.82" cy="227" r="3.667"/>
			
				<circle fill="none" stroke="#231F20" stroke-width="4" stroke-linecap="round" stroke-linejoin="round" stroke-miterlimit="10" cx="180.116" cy="197.333" r="3.667"/>
			
				<circle fill="none" stroke="#231F20" stroke-width="4" stroke-linecap="round" stroke-linejoin="round" stroke-miterlimit="10" cx="182.087" cy="168.759" r="3.667"/>
			
				<circle fill="none" stroke="#231F20" stroke-width="4" stroke-linecap="round" stroke-linejoin="round" stroke-miterlimit="10" cx="185.01" cy="140.803" r="3.667"/>
			
				<circle fill="none" stroke="#231F20" stroke-width="4" stroke-linecap="round" stroke-linejoin="round" stroke-miterlimit="10" cx="189.42" cy="112.062" r="3.667"/>
			
				<circle fill="none" stroke="#231F20" stroke-width="4" stroke-linecap="round" stroke-linejoin="round" stroke-miterlimit="10" cx="221.338" cy="113.667" r="3.667"/>
			
				<circle fill="none" stroke="#231F20" stroke-width="4" stroke-linecap="round" stroke-linejoin="round" stroke-miterlimit="10" cx="226.018" cy="140.803" r="3.667"/>
			
				<circle fill="none" stroke="#231F20" stroke-width="4" stroke-linecap="round" stroke-linejoin="round" stroke-miterlimit="10" cx="228.672" cy="168.759" r="3.667"/>
			
				<circle fill="none" stroke="#231F20" stroke-width="4" stroke-linecap="round" stroke-linejoin="round" stroke-miterlimit="10" cx="231.271" cy="197.333" r="3.667"/>
			
				<circle fill="none" stroke="#231F20" stroke-width="4" stroke-linecap="round" stroke-linejoin="round" stroke-miterlimit="10" cx="234.938" cy="225.971" r="3.667"/>
			
				<line fill="none" stroke="#231F20" stroke-width="7" stroke-linecap="round" stroke-linejoin="round" stroke-miterlimit="10" x1="83.509" y1="235.859" x2="116.717" y2="247.834"/>
			
				<line fill="none" stroke="#231F20" stroke-width="7" stroke-linecap="round" stroke-linejoin="round" stroke-miterlimit="10" x1="319.975" y1="237.875" x2="285.307" y2="250.122"/>
		</g>
	</g>
</g>
</svg>
