<?xml version="1.0" encoding="utf-8"?>
<!-- Generator: Adobe Illustrator 17.0.0, SVG Export Plug-In . SVG Version: 6.00 Build 0)  -->
<!DOCTYPE svg PUBLIC "-//W3C//DTD SVG 1.1//EN" "http://www.w3.org/Graphics/SVG/1.1/DTD/svg11.dtd">
<svg version="1.1" xmlns="http://www.w3.org/2000/svg" xmlns:xlink="http://www.w3.org/1999/xlink" x="0px" y="0px" width="402px"
	 height="402px" viewBox="0 0 402 402" enable-background="new 0 0 402 402" xml:space="preserve">
<g id="Layer_8">
</g>
<g id="belt">
	<g>
		<circle fill="#C2B59B" stroke="#231F20" stroke-width="7" stroke-miterlimit="10" cx="200.041" cy="201" r="201"/>
		<g>
			<path fill="#FFFFFF" stroke="#231F20" stroke-width="6" stroke-miterlimit="10" d="M24.774,168.919
				c4.328-5.539,11.907-11.291,18.32-14.989c8.174-4.713,15.393-6.711,24.716-7.048c14.428-0.521,34.236,6.749,45.761,15.76
				c4.008,3.134,14.793,12.976,11.673,18.601c-1.513,2.727-9.225,3.796-11.8,4.087c-5.916,0.669-7.896-2.096-11.427-6.686
				c-9.662-12.563-24.212-28.926-39.859-15.989c-3.261,2.696-14.189,12.226-13.298,14.976"/>
			<path fill="#FFFFFF" stroke="#231F20" stroke-width="6" stroke-miterlimit="10" d="M375.307,168.919
				c-4.328-5.539-11.907-11.291-18.32-14.989c-8.174-4.713-15.393-6.711-24.716-7.048c-14.428-0.521-34.236,6.749-45.761,15.76
				c-4.008,3.134-14.793,12.976-11.673,18.601c1.513,2.727,9.225,3.796,11.8,4.087c5.916,0.669,7.896-2.096,11.427-6.686
				c9.662-12.563,24.212-28.926,39.859-15.989c3.261,2.696,14.189,12.226,13.298,14.976"/>
			<path opacity="0.5" fill="#FFFFFF" stroke="#231F20" stroke-width="6" stroke-miterlimit="10" d="M341.142,176.947
				c9.737,1.196,13.466,13.489,14.178,18.62c1.226,8.829,0.16,17.536-1.023,26.11c-2.361,17.105-7.633,31.045-22.524,40.414
				c-7.253,4.563-18.174,6.908-26.689,8.823c-8.543,1.921-18.154,2.938-27.148,2.048c-8.835-0.874-17.722-1.497-24.997-6.815
				c-7.362-5.382-10.804-11.347-15.092-19.208c-7.336-13.45-17.348-31.272-11.274-46.761c6.154-15.695,29.374-19.14,43.65-22.564
				c11.218-2.69,22.98-3.06,34.863-3.06c6.537,0,13.001,0.228,19.446,0.512c5.867,0.259,5.867,0.259,11.656,1.027L341.142,176.947z"
				/>
			<path fill="#FFFFFF" stroke="#231F20" stroke-width="6" stroke-miterlimit="10" d="M327.11,166.47
				c-11.278-0.372-21.482,0.512-32.261,1.435c-9.616,0.824-19.113,1.199-28.697,2.577c-11.813,1.698-22.716,4.172-33.825,7.661
				c-11.289,3.545-19.481,8.137-31.081,8.174l-1.205,0.026c-11.6-0.037-20.997-4.654-32.286-8.2
				c-11.109-3.489-22.012-5.962-33.825-7.661c-9.584-1.378-19.081-1.753-28.697-2.577c-10.779-0.923-20.983-1.807-32.261-1.435
				c-17.278,0.569-33.677,0.569-50.936,2.4c0,0,3.138,12.313,3.934,15.764c0.957,4.151,8.561,34.818,9.965,40.695
				c2.563,10.726,6.645,21.713,13.564,30.171c6.479,7.92,11.355,12.135,20.347,17.026c8.164,4.441,19.381,6.835,28.615,8.224
				c18.944,2.851,41.406,0.093,57.418-10.362c14.96-9.768,18.387-28.012,24.688-42.907c1.775-4.197,2.958-9.044,6.523-12.056
				c2.65-2.238,7.997-5.85,11.926-5.509h2.05c3.929-0.342,9.276,3.27,11.926,5.509c3.566,3.012,4.748,7.859,6.523,12.056
				c6.301,14.895,9.728,33.139,24.688,42.907c16.012,10.455,38.474,13.213,57.418,10.362c9.233-1.39,20.451-3.784,28.615-8.224
				c8.991-4.891,13.867-9.105,20.347-17.026c6.919-8.458,11.002-19.445,13.564-30.171c1.404-5.877,9.007-36.544,9.965-40.695
				c0.796-3.451,3.934-15.764,3.934-15.764C360.787,167.039,344.388,167.039,327.11,166.47z M162.233,246.941
				c-4.287,7.861-7.729,13.826-15.092,19.208c-7.275,5.318-16.163,5.941-24.997,6.815c-8.994,0.89-18.605-0.127-27.148-2.048
				c-8.515-1.915-19.436-4.26-26.689-8.823c-14.892-9.369-20.163-23.309-22.524-40.415c-1.184-8.574-2.249-17.281-1.023-26.11
				c0.713-5.131,4.441-17.424,14.178-18.62l4.954-0.852c5.789-0.768,5.789-0.768,11.656-1.027
				c6.444-0.284,12.909-0.512,19.446-0.512c11.883,0,23.645,0.37,34.863,3.06c14.276,3.424,37.496,6.869,43.65,22.564
				C179.581,215.669,169.57,233.49,162.233,246.941z M354.298,221.677c-2.361,17.105-7.633,31.045-22.524,40.415
				c-7.253,4.563-18.174,6.908-26.689,8.823c-8.543,1.921-18.154,2.938-27.148,2.048c-8.835-0.874-17.722-1.497-24.997-6.815
				c-7.362-5.382-10.804-11.347-15.092-19.208c-7.336-13.45-17.348-31.272-11.274-46.761c6.154-15.695,29.374-19.14,43.65-22.564
				c11.218-2.69,22.98-3.06,34.863-3.06c6.537,0,13.001,0.228,19.446,0.512c5.867,0.259,5.867,0.259,11.656,1.027l4.954,0.852
				c9.737,1.196,13.466,13.489,14.178,18.62C356.547,204.396,355.481,213.103,354.298,221.677z"/>
			<path opacity="0.5" fill="#FFFFFF" stroke="#231F20" stroke-width="6" stroke-miterlimit="10" d="M58.939,176.947
				c-9.737,1.196-13.466,13.489-14.178,18.62c-1.226,8.829-0.16,17.536,1.023,26.11c2.361,17.105,7.633,31.045,22.524,40.414
				c7.253,4.563,18.174,6.908,26.689,8.823c8.543,1.921,18.154,2.938,27.148,2.048c8.835-0.874,17.722-1.497,24.997-6.815
				c7.362-5.382,10.804-11.347,15.092-19.208c7.336-13.45,17.348-31.272,11.274-46.761c-6.154-15.695-29.374-19.14-43.65-22.564
				c-11.218-2.69-22.98-3.06-34.863-3.06c-6.537,0-13.002,0.228-19.446,0.512c-5.867,0.259-5.867,0.259-11.656,1.027L58.939,176.947
				z"/>
		</g>
	</g>
</g>
</svg>
