<?xml version="1.0" encoding="utf-8"?>
<!-- Generator: Adobe Illustrator 17.0.0, SVG Export Plug-In . SVG Version: 6.00 Build 0)  -->
<!DOCTYPE svg PUBLIC "-//W3C//DTD SVG 1.1//EN" "http://www.w3.org/Graphics/SVG/1.1/DTD/svg11.dtd">
<svg version="1.1" xmlns="http://www.w3.org/2000/svg" xmlns:xlink="http://www.w3.org/1999/xlink" x="0px" y="0px" width="402px"
	 height="402px" viewBox="0 0 402 402" enable-background="new 0 0 402 402" xml:space="preserve">
<g id="cheese">
</g>
<g id="Layer_8">
	<g>
		<defs>
			<circle id="SVGID_1_" cx="201" cy="201" r="201"/>
		</defs>
		<clipPath id="SVGID_2_">
			<use xlink:href="#SVGID_1_"  overflow="visible"/>
		</clipPath>
		<g clip-path="url(#SVGID_2_)">
			<circle fill="#FFE02F" stroke="#231F20" stroke-width="7" stroke-miterlimit="10" cx="201" cy="201" r="201"/>
			<path fill="#FFFFFF" stroke="#231F20" stroke-width="7" stroke-linejoin="round" stroke-miterlimit="10" d="M80.914,197.42
				v128.078l78.032-23.001l-0.591-3.251c-0.813-6.65,2.857-10.675,9.976-12.784c11.177-3.311,9.093,6.572,10.012,8.42l0.555,1.851
				l144.093-46.11l2.217-28.966l0.089-1.992c-6.04-1.389-12.16-1.041-16.924-5.853c-4.373-4.417-7.939-12.287-7.992-18.621
				c-0.072-8.538,1.051-17.891,7.106-24.263c5.488-5.775,11.076-10.502,19.346-10.158l3.706-0.282l3.033-36.221L80.914,197.42
				l43.124-44.995l1.693-0.754c6.111,4.114,13.684,6.593,20.358,1.756c4.042-2.93,5.997-7.61,4.853-12.314
				c-0.859-3.527-5.871-6.814-7.317-8.62l0.808-1.346l52.201-54.466l136.94,47.584"/>
			<path fill="#FFFFFF" stroke="#231F20" stroke-width="4" stroke-linejoin="round" stroke-miterlimit="10" d="M224.03,225.216
				c-7.828,1.134-9.919,4.2-14.335,12.596c-4.731,8.995-2.589,19.192,6.209,21.852c8.638,2.612,18.243-1.108,23.052-10.412
				c1.908-3.692,4.203-13.817,3.315-18.316C241.14,225.216,228.715,224.538,224.03,225.216z"/>
			<path fill="#FFFFFF" stroke="#231F20" stroke-width="4" stroke-linejoin="round" stroke-miterlimit="10" d="M277.996,167.906
				c-8.866-6.811-24.412,0.563-30.813,9.871c-5.992,8.714-7.809,27.895,3.849,31.654c10.768,3.472,30.318-4.628,32.628-15.993
				c0.899-4.422,2.982-14.136,0.859-17.907C283.138,173.075,280.152,169.562,277.996,167.906z"/>
			<path fill="#FFFFFF" stroke="#231F20" stroke-width="4" stroke-linejoin="round" stroke-miterlimit="10" d="M237.562,103.219
				c-6.555-3.018-14.638-3.07-23.181-1.001c-9.608,2.326-20.582,14.756-7.104,20.997c9.713,4.497,22.591-0.468,31.958-3.76
				c3.628-1.275,10.192-2.627,9.845-7.663c-0.225-3.276-2.673-5.225-6.77-6.897L237.562,103.219z"/>
			<path fill="#FFFFFF" stroke="#231F20" stroke-width="4" stroke-linejoin="round" stroke-miterlimit="10" d="M128.563,257.872
				c-5.313,1.627-11.157,11.616-13.5,16.768c-4.248,9.343-1.528,19.731,8.999,16.523c12.277-3.742,21.659-18.646,14.923-28.916
				C137.347,259.75,132.129,256.78,128.563,257.872z"/>
			<path fill="#FFFFFF" stroke="#231F20" stroke-width="4" stroke-linejoin="round" stroke-miterlimit="10" d="M163.344,195.848
				c19.214,16.253,2.47,48.938-15.34,23.628c-12.373-17.584-0.023-36.085,13.808-25.036L163.344,195.848z"/>
		</g>
	</g>
</g>
</svg>
